<?xml version="1.0" standalone="no"?><!DOCTYPE svg PUBLIC "-//W3C//DTD SVG 1.1//EN" "http://www.w3.org/Graphics/SVG/1.1/DTD/svg11.dtd"><svg t="1739169312095" class="icon" viewBox="0 0 1024 1024" version="1.1" xmlns="http://www.w3.org/2000/svg" p-id="7129" xmlns:xlink="http://www.w3.org/1999/xlink" width="200" height="200"><path d="M810.666667 128l-178.56 0c-17.493333-49.493333-64.426667-85.333333-120.106667-85.333333s-102.613333 35.84-120.106667 85.333333l-178.56 0c-47.146667 0-85.333333 38.186667-85.333333 85.333333l0 597.333333c0 47.146667 38.186667 85.333333 85.333333 85.333333l597.333333 0c47.146667 0 85.333333-38.186667 85.333333-85.333333l0-597.333333c0-47.146667-38.186667-85.333333-85.333333-85.333333zM512 128c23.466667 0 42.666667 18.986667 42.666667 42.666667s-19.2 42.666667-42.666667 42.666667-42.666667-18.986667-42.666667-42.666667 19.2-42.666667 42.666667-42.666667zM597.333333 725.333333l-298.666667 0 0-85.333333 298.666667 0 0 85.333333zM725.333333 554.666667l-426.666667 0 0-85.333333 426.666667 0 0 85.333333zM725.333333 384l-426.666667 0 0-85.333333 426.666667 0 0 85.333333z" fill="#444444" p-id="7130"></path></svg>