<?xml version="1.0" standalone="no"?><!DOCTYPE svg PUBLIC "-//W3C//DTD SVG 1.1//EN" "http://www.w3.org/Graphics/SVG/1.1/DTD/svg11.dtd"><svg t="1739168592348" class="icon" viewBox="0 0 1024 1024" version="1.1" xmlns="http://www.w3.org/2000/svg" p-id="4866" xmlns:xlink="http://www.w3.org/1999/xlink" width="200" height="200"><path d="M578.9 716.6c-12.5-12.5-32.8-12.5-45.3 0l-82.1 82.1c-30.1 30.1-70.2 46.6-113.1 46.6s-83.1-16.6-113.1-46.6c-30.1-30.1-46.6-70.2-46.6-113.1s16.6-83.1 46.6-113.1l82.1-82.1c12.5-12.5 12.5-32.8 0-45.3s-32.8-12.5-45.3 0L180 527.2c-42.2 42.2-65.4 98.4-65.4 158.4S137.9 801.8 180 844s98.4 65.4 158.4 65.4 116.2-23.2 158.4-65.4l82.1-82.1c12.5-12.5 12.5-32.8 0-45.3zM845 179c-42.2-42.2-98.4-65.4-158.4-65.4S570.3 136.9 528.2 179l-85.1 85.1c-12.5 12.5-12.5 32.8 0 45.3s32.8 12.5 45.3 0l85.1-85.1c30.1-30.1 70.2-46.6 113.1-46.6s83.1 16.6 113.1 46.6c30.1 30.1 46.6 70.2 46.6 113.1s-16.6 83.1-46.6 113.1l-85.1 85.1c-12.5 12.5-12.5 32.8 0 45.3s32.8 12.5 45.3 0l85.1-85.1c42.2-42.2 65.4-98.4 65.4-158.4-0.1-60-23.3-116.2-65.4-158.4z" p-id="4867"></path><path d="M297.4 726.6c6.2 6.2 14.4 9.4 22.6 9.4s16.4-3.1 22.6-9.4l382-382c12.5-12.5 12.5-32.8 0-45.3s-32.8-12.5-45.3 0l-382 382c-12.4 12.6-12.4 32.8 0.1 45.3z" p-id="4868"></path></svg>