<?xml version="1.0" standalone="no"?><!DOCTYPE svg PUBLIC "-//W3C//DTD SVG 1.1//EN" "http://www.w3.org/Graphics/SVG/1.1/DTD/svg11.dtd"><svg t="1739169515245" class="icon" viewBox="0 0 1024 1024" version="1.1" xmlns="http://www.w3.org/2000/svg" p-id="11895" xmlns:xlink="http://www.w3.org/1999/xlink" width="200" height="200"><path d="M256 85.333333h341.333333l256 256v512a85.333333 85.333333 0 0 1-85.333333 85.333334H256a85.333333 85.333333 0 0 1-85.333333-85.333334V170.666667a85.333333 85.333333 0 0 1 85.333333-85.333334m298.666667 64V384h234.666666L554.666667 149.333333M341.333333 469.333333v85.333334h42.666667v256H341.333333v42.666666h170.666667v-42.666666h-42.666667v-85.333334h85.333334a128 128 0 0 0 128-128 128 128 0 0 0-128-128H341.333333m213.333334 85.333334a42.666667 42.666667 0 0 1 42.666666 42.666666 42.666667 42.666667 0 0 1-42.666666 42.666667h-85.333334v-85.333333h85.333334z" fill="#D14524" p-id="11896"></path></svg>